<?xml version="1.0" encoding="UTF-8"?>
<svg width="214px" height="24px" viewBox="0 0 214 24" version="1.1" xmlns="http://www.w3.org/2000/svg" xmlns:xlink="http://www.w3.org/1999/xlink">
    <g id="WEB" stroke="none" stroke-width="1" fill="none" fill-rule="evenodd">
        <g id="Flow-payment-1" transform="translate(-70.000000, -72.000000)" fill="#000000">
            <g id="Group-2">
                <g id="Group-5">
                    <g id="Logo" transform="translate(69.869822, 72.000000)">
                        <polyline id="ZNY" points="190.703868 0 174.591923 7.70740614 164.382391 0 122.439795 0 117.951799 12.128723 97.5331828 0 73.1415131 0 67.0202603 16.5482141 33.9723727 16.5482141 67.8455977 5.35478717 69.8258717 0 9.20063694 0 6.56429114 7.12769599 35.2036797 7.12769599 2.0052842 18.578569 0 24 85.8877962 24 90.7442462 10.8711628 113.239158 24 135.187418 24 143.005347 2.86614173 160.217742 15.257332 156.982044 24 178.670376 24 181.85784 15.386055 214 0 190.703868 0"></polyline>
                    </g>
                </g>
            </g>
        </g>
    </g>
</svg>
